<svg width="25" height="25" viewBox="0 0 25 25" fill="none" xmlns="http://www.w3.org/2000/svg">
<g id="star" clip-path="url(#clip0_56_356)">
<path id="Icon" d="M11.549 3.42664C11.8483 2.50537 13.1517 2.50538 13.451 3.42664L14.9699 8.10055C15.1038 8.51254 15.4877 8.79148 15.9209 8.79149L20.8354 8.79168C21.8041 8.79172 22.2068 10.0313 21.4232 10.6007L17.4474 13.4895C17.0969 13.7441 16.9503 14.1955 17.0841 14.6075L18.6026 19.2815C18.9019 20.2028 17.8475 20.9689 17.0638 20.3995L13.0878 17.511C12.7373 17.2564 12.2627 17.2564 11.9122 17.511L7.93622 20.3995C7.15252 20.9689 6.0981 20.2028 6.3974 19.2815L7.91589 14.6075C8.04974 14.1955 7.90309 13.7441 7.55263 13.4895L3.57683 10.6007C2.79317 10.0313 3.19592 8.79172 4.16461 8.79168L9.07911 8.79149C9.51231 8.79148 9.89623 8.51254 10.0301 8.10055L11.549 3.42664Z" fill="#495E57" stroke="#495E57" stroke-width="2"/>
</g>
<defs>
<clipPath id="clip0_56_356">
<rect width="24" height="24" fill="white" transform="translate(0.5 0.5)"/>
</clipPath>
</defs>
</svg>
